<svg xmlns="http://www.w3.org/2000/svg" width="34.269" height="34.269" viewBox="0 0 34.269 34.269">
  <path id="icons8-ios--用-glyph" d="M20.135,3A17.271,17.271,0,0,0,3,20.4,17.343,17.343,0,0,0,15.982,37.269a2.576,2.576,0,0,1-.131-.845V33.449H13.7a2.97,2.97,0,0,1-2.72-1.463c-.561-1.057-.658-2.674-2.049-3.663-.413-.329-.1-.7.377-.654A4.5,4.5,0,0,1,11.6,29.441a2.191,2.191,0,0,0,2.279,1.115,16.124,16.124,0,0,0,2.415-.175,5.442,5.442,0,0,1,2.267-2.845c-5.706-.6-8.429-3.479-8.429-7.393a7.172,7.172,0,0,1,1.908-4.689c-.394-1.363-.89-4.143.151-5.2A5.936,5.936,0,0,1,16.681,12.4a12.767,12.767,0,0,1,8.333,0,5.932,5.932,0,0,1,4.495-2.151c1.045,1.06.544,3.852.146,5.212a7.169,7.169,0,0,1,1.9,4.678c0,3.911-2.719,6.793-8.416,7.392a6.127,6.127,0,0,1,2.712,4.925v3.965a2.59,2.59,0,0,1-.05.389A17.433,17.433,0,0,0,20.135,3Z" transform="translate(-3 -3)"/>
</svg>
