<svg xmlns="http://www.w3.org/2000/svg" width="35.269" height="35.269" viewBox="0 0 35.269 35.269">
  <defs>
    <style>
      .cls-1 {
        fill: #72d9ff;
        stroke: #72d9ff;
      }
    </style>
  </defs>
  <path id="中マド_1" data-name="中マド 1" class="cls-1" d="M17.135,34.269a17.139,17.139,0,0,1-6.67-32.923A17.124,17.124,0,0,1,29.957,5.768a10.7,10.7,0,0,1-3.33,1.323A5.593,5.593,0,0,0,24.8,5.7a5.233,5.233,0,0,0-2.265-.512,5.835,5.835,0,0,0-5.6,6.034,6.46,6.46,0,0,0,.146,1.373,14.877,14.877,0,0,1-6.479-1.879,16.209,16.209,0,0,1-5.06-4.428A6.405,6.405,0,0,0,4.79,9.326a6.16,6.16,0,0,0,2.491,5.018,5.218,5.218,0,0,1-2.537-.754v.076a6.335,6.335,0,0,0,1.284,3.845,5.561,5.561,0,0,0,3.206,2.071,5.181,5.181,0,0,1-1.474.211,5.109,5.109,0,0,1-1.054-.108,5.659,5.659,0,0,0,5.228,4.189,10.938,10.938,0,0,1-3.209,1.9,10.549,10.549,0,0,1-3.743.683,10.778,10.778,0,0,1-1.333-.081,15.283,15.283,0,0,0,15.414,1.146,15.225,15.225,0,0,0,4.993-4.032,18.031,18.031,0,0,0,3.062-5.526,18.641,18.641,0,0,0,1.041-6.043c0-.3-.005-.549-.017-.786a11.653,11.653,0,0,0,2.795-3.119,10.622,10.622,0,0,1-3.216.951A6,6,0,0,0,30.089,5.92,17.129,17.129,0,0,1,17.135,34.269ZM30.089,5.92h0l-.132-.151c.071-.043.145-.089.227-.141-.032.109-.063.2-.094.292Z" transform="translate(0.5 0.5)"/>
</svg>
